<?xml version="1.0" encoding="iso-8859-1"?>
<!-- Generator: Adobe Illustrator 21.0.2, SVG Export Plug-In . SVG Version: 6.00 Build 0)  -->
<svg xmlns="http://www.w3.org/2000/svg" xmlns:xlink="http://www.w3.org/1999/xlink" version="1.1" id="&#1057;&#1083;&#1086;&#1081;_1" x="0px" y="0px" viewBox="0 0 40 40" style="enable-background:new 0 0 40 40;" xml:space="preserve">
<g>
	<rect x="8.5" y="33.5" style="fill:#B6DCFE;" width="24" height="5"/>
	<path style="fill:#4788C7;" d="M32,34v4H9v-4H32 M33,33H8v6h25V33L33,33z"/>
</g>
<g>
	<path style="fill:#DFF0FE;" d="M5.5,34.5V4.071C5.5,2.678,6.645,1.5,8,1.5h25c1.355,0,2.5,1.178,2.5,2.571V34.5H5.5z"/>
	<g>
		<path style="fill:#4788C7;" d="M33,2c1.084,0,2,0.949,2,2.071V34H6V4.071C6,2.949,6.916,2,8,2H33 M33,1H8C6.343,1,5,2.415,5,4.071    V35h31V4.071C36,2.415,34.657,1,33,1L33,1z"/>
	</g>
</g>
<g>
	<path style="fill:#98CCFD;" d="M29,23H12c-1.657,0-3-1.343-3-3V8c0-1.657,1.343-3,3-3h17c1.657,0,3,1.343,3,3v12   C32,21.657,30.657,23,29,23z"/>
</g>
<g>
	<circle style="fill:#4788C7;" cx="10.5" cy="31.5" r="1.5"/>
</g>
<g>
	<rect x="6" y="26" style="fill:#B6DCFE;" width="29" height="3"/>
</g>
<g>
	<rect x="19" y="26" style="fill:#98CCFD;" width="11" height="3"/>
</g>
<rect x="14" y="9" style="fill:#4788C7;" width="2" height="3"/>
<rect x="25" y="9" style="fill:#4788C7;" width="2" height="3"/>
<rect x="20" y="9" style="fill:#4788C7;" width="2" height="6"/>
<rect x="19" y="13" style="fill:#4788C7;" width="2" height="2"/>
<rect x="17" y="17" style="fill:#4788C7;" width="7" height="2"/>
<rect x="24" y="15" style="fill:#4788C7;" width="2" height="2"/>
<rect x="15" y="15" style="fill:#4788C7;" width="2" height="2"/>
</svg>
